<?xml version="1.0" encoding="UTF-8"?>
<svg xmlns="http://www.w3.org/2000/svg" xmlns:xlink="http://www.w3.org/1999/xlink" width="2200pt" height="2200pt" viewBox="0 0 2200 2200" version="1.1">
<g id="surface334">
<rect x="0" y="0" width="2200" height="2200" style="fill:rgb(100%,100%,100%);fill-opacity:1;stroke:none;"/>
<path style="fill:none;stroke-width:2;stroke-linecap:butt;stroke-linejoin:miter;stroke:rgb(0%,0%,100%);stroke-opacity:1;stroke-miterlimit:10;" d="M 1160 1180 L 1180 1180 M 1160 1180 L 1160 1120 M 1160 1120 L 1220 1120 M 1220 1120 L 1200 1140 M 1200 1140 L 1180 1140 M 1180 1140 L 1180 1180 "/>
<path style="fill:none;stroke-width:2;stroke-linecap:butt;stroke-linejoin:miter;stroke:rgb(0%,0%,100%);stroke-opacity:1;stroke-miterlimit:10;" d="M 1040 1160 L 1040 1180 M 1040 1160 L 1100 1160 M 1100 1160 L 1100 1220 M 1100 1220 L 1080 1200 M 1080 1200 L 1080 1180 M 1080 1180 L 1040 1180 "/>
<path style="fill:none;stroke-width:2;stroke-linecap:butt;stroke-linejoin:miter;stroke:rgb(0%,0%,100%);stroke-opacity:1;stroke-miterlimit:10;" d="M 1060 1040 L 1040 1040 M 1060 1040 L 1060 1100 M 1060 1100 L 1000 1100 M 1000 1100 L 1020 1080 M 1020 1080 L 1040 1080 M 1040 1080 L 1040 1040 "/>
<path style="fill:none;stroke-width:2;stroke-linecap:butt;stroke-linejoin:miter;stroke:rgb(0%,0%,100%);stroke-opacity:1;stroke-miterlimit:10;" d="M 1180 1060 L 1180 1040 M 1180 1060 L 1120 1060 M 1120 1060 L 1120 1000 M 1120 1000 L 1140 1020 M 1140 1020 L 1140 1040 M 1140 1040 L 1180 1040 "/>
</g>
</svg>
