<?xml version="1.0" encoding="UTF-8"?>
<svg xmlns="http://www.w3.org/2000/svg" xmlns:xlink="http://www.w3.org/1999/xlink" width="2000pt" height="600pt" viewBox="0 0 2000 600" version="1.1">
<g id="surface156">
<rect x="0" y="0" width="2000" height="600" style="fill:rgb(100%,100%,100%);fill-opacity:1;stroke:none;"/>
<path style="fill:none;stroke-width:2;stroke-linecap:butt;stroke-linejoin:miter;stroke:rgb(0%,0%,0%);stroke-opacity:1;stroke-miterlimit:10;" d="M 100 20 L 180 20 M 100 500 L 180 500 M 100 20 L 100 500 "/>
<path style="fill:none;stroke-width:2;stroke-linecap:butt;stroke-linejoin:miter;stroke:rgb(100%,0%,0%);stroke-opacity:1;stroke-miterlimit:10;" d="M 100 260 L 180 260 M 100 233.332031 L 180 233.332031 M 100 473.332031 L 180 473.332031 M 180 260 L 180 500 M 100 233.332031 L 180 46.667969 "/>
<path style="fill:none;stroke-width:2;stroke-linecap:butt;stroke-linejoin:miter;stroke:rgb(0%,0%,100%);stroke-opacity:1;stroke-miterlimit:10;" d="M 100 286.667969 L 180 286.667969 M 100 46.667969 L 180 46.667969 M 180 20 L 180 260 M 100 286.667969 L 180 473.332031 "/>
<path style="fill:none;stroke-width:2;stroke-linecap:butt;stroke-linejoin:miter;stroke:rgb(0%,0%,0%);stroke-opacity:1;stroke-miterlimit:10;" d="M 180 20 L 260 20 M 180 500 L 260 500 "/>
<path style="fill:none;stroke-width:2;stroke-linecap:butt;stroke-linejoin:miter;stroke:rgb(100%,0%,0%);stroke-opacity:1;stroke-miterlimit:10;" d="M 180 260 L 260 260 M 180 233.332031 L 260 233.332031 M 180 473.332031 L 260 473.332031 M 260 260 L 260 500 M 180 233.332031 L 260 46.667969 "/>
<path style="fill:none;stroke-width:2;stroke-linecap:butt;stroke-linejoin:miter;stroke:rgb(0%,0%,100%);stroke-opacity:1;stroke-miterlimit:10;" d="M 180 286.667969 L 260 286.667969 M 180 46.667969 L 260 46.667969 M 260 20 L 260 260 M 180 286.667969 L 260 473.332031 "/>
<path style="fill:none;stroke-width:2;stroke-linecap:butt;stroke-linejoin:miter;stroke:rgb(0%,0%,0%);stroke-opacity:1;stroke-miterlimit:10;" d="M 260 20 L 340 20 M 260 500 L 340 500 "/>
<path style="fill:none;stroke-width:2;stroke-linecap:butt;stroke-linejoin:miter;stroke:rgb(100%,0%,0%);stroke-opacity:1;stroke-miterlimit:10;" d="M 260 260 L 340 260 M 260 233.332031 L 340 233.332031 M 260 473.332031 L 340 473.332031 M 340 260 L 340 500 M 260 233.332031 L 340 46.667969 "/>
<path style="fill:none;stroke-width:2;stroke-linecap:butt;stroke-linejoin:miter;stroke:rgb(0%,0%,100%);stroke-opacity:1;stroke-miterlimit:10;" d="M 260 286.667969 L 340 286.667969 M 260 46.667969 L 340 46.667969 M 340 20 L 340 260 M 260 286.667969 L 340 473.332031 "/>
<path style="fill:none;stroke-width:2;stroke-linecap:butt;stroke-linejoin:miter;stroke:rgb(0%,0%,0%);stroke-opacity:1;stroke-miterlimit:10;" d="M 340 20 L 420 20 M 340 500 L 420 500 "/>
<path style="fill:none;stroke-width:2;stroke-linecap:butt;stroke-linejoin:miter;stroke:rgb(100%,0%,0%);stroke-opacity:1;stroke-miterlimit:10;" d="M 340 260 L 420 260 M 340 233.332031 L 420 233.332031 M 340 473.332031 L 420 473.332031 M 420 260 L 420 500 M 340 233.332031 L 420 46.667969 "/>
<path style="fill:none;stroke-width:2;stroke-linecap:butt;stroke-linejoin:miter;stroke:rgb(0%,0%,100%);stroke-opacity:1;stroke-miterlimit:10;" d="M 340 286.667969 L 420 286.667969 M 340 46.667969 L 420 46.667969 M 420 20 L 420 260 M 340 286.667969 L 420 473.332031 "/>
<path style="fill:none;stroke-width:2;stroke-linecap:butt;stroke-linejoin:miter;stroke:rgb(0%,0%,0%);stroke-opacity:1;stroke-miterlimit:10;" d="M 420 20 L 500 20 M 420 500 L 500 500 "/>
<path style="fill:none;stroke-width:2;stroke-linecap:butt;stroke-linejoin:miter;stroke:rgb(100%,0%,0%);stroke-opacity:1;stroke-miterlimit:10;" d="M 420 260 L 500 260 M 420 233.332031 L 500 233.332031 M 420 473.332031 L 500 473.332031 M 500 260 L 500 500 M 420 233.332031 L 500 46.667969 "/>
<path style="fill:none;stroke-width:2;stroke-linecap:butt;stroke-linejoin:miter;stroke:rgb(0%,0%,100%);stroke-opacity:1;stroke-miterlimit:10;" d="M 420 286.667969 L 500 286.667969 M 420 46.667969 L 500 46.667969 M 500 20 L 500 260 M 420 286.667969 L 500 473.332031 "/>
<path style="fill:none;stroke-width:2;stroke-linecap:butt;stroke-linejoin:miter;stroke:rgb(0%,0%,0%);stroke-opacity:1;stroke-miterlimit:10;" d="M 500 20 L 580 20 M 500 500 L 580 500 "/>
<path style="fill:none;stroke-width:2;stroke-linecap:butt;stroke-linejoin:miter;stroke:rgb(100%,0%,0%);stroke-opacity:1;stroke-miterlimit:10;" d="M 500 260 L 580 260 M 500 233.332031 L 580 233.332031 M 500 473.332031 L 580 473.332031 M 580 260 L 580 500 M 500 233.332031 L 580 46.667969 "/>
<path style="fill:none;stroke-width:2;stroke-linecap:butt;stroke-linejoin:miter;stroke:rgb(0%,0%,100%);stroke-opacity:1;stroke-miterlimit:10;" d="M 500 286.667969 L 580 286.667969 M 500 46.667969 L 580 46.667969 M 580 20 L 580 260 M 500 286.667969 L 580 473.332031 "/>
<path style="fill:none;stroke-width:2;stroke-linecap:butt;stroke-linejoin:miter;stroke:rgb(0%,0%,0%);stroke-opacity:1;stroke-miterlimit:10;" d="M 580 20 L 660 20 M 580 500 L 660 500 "/>
<path style="fill:none;stroke-width:2;stroke-linecap:butt;stroke-linejoin:miter;stroke:rgb(100%,0%,0%);stroke-opacity:1;stroke-miterlimit:10;" d="M 580 260 L 660 260 M 580 233.332031 L 660 233.332031 M 580 473.332031 L 660 473.332031 M 660 260 L 660 500 M 580 233.332031 L 660 46.667969 "/>
<path style="fill:none;stroke-width:2;stroke-linecap:butt;stroke-linejoin:miter;stroke:rgb(0%,0%,100%);stroke-opacity:1;stroke-miterlimit:10;" d="M 580 286.667969 L 660 286.667969 M 580 46.667969 L 660 46.667969 M 660 20 L 660 260 M 580 286.667969 L 660 473.332031 "/>
<path style="fill:none;stroke-width:2;stroke-linecap:butt;stroke-linejoin:miter;stroke:rgb(0%,0%,0%);stroke-opacity:1;stroke-miterlimit:10;" d="M 660 20 L 740 20 M 660 500 L 740 500 "/>
<path style="fill:none;stroke-width:2;stroke-linecap:butt;stroke-linejoin:miter;stroke:rgb(100%,0%,0%);stroke-opacity:1;stroke-miterlimit:10;" d="M 660 260 L 740 260 M 660 233.332031 L 740 233.332031 M 660 473.332031 L 740 473.332031 M 740 260 L 740 500 M 660 233.332031 L 740 46.667969 "/>
<path style="fill:none;stroke-width:2;stroke-linecap:butt;stroke-linejoin:miter;stroke:rgb(0%,0%,100%);stroke-opacity:1;stroke-miterlimit:10;" d="M 660 286.667969 L 740 286.667969 M 660 46.667969 L 740 46.667969 M 740 20 L 740 260 M 660 286.667969 L 740 473.332031 "/>
<path style="fill:none;stroke-width:2;stroke-linecap:butt;stroke-linejoin:miter;stroke:rgb(0%,0%,0%);stroke-opacity:1;stroke-miterlimit:10;" d="M 740 20 L 820 20 M 740 500 L 820 500 "/>
<path style="fill:none;stroke-width:2;stroke-linecap:butt;stroke-linejoin:miter;stroke:rgb(100%,0%,0%);stroke-opacity:1;stroke-miterlimit:10;" d="M 740 260 L 820 260 M 740 233.332031 L 820 233.332031 M 740 473.332031 L 820 473.332031 M 820 260 L 820 500 M 740 233.332031 L 820 46.667969 "/>
<path style="fill:none;stroke-width:2;stroke-linecap:butt;stroke-linejoin:miter;stroke:rgb(0%,0%,100%);stroke-opacity:1;stroke-miterlimit:10;" d="M 740 286.667969 L 820 286.667969 M 740 46.667969 L 820 46.667969 M 820 20 L 820 260 M 740 286.667969 L 820 473.332031 "/>
<path style="fill:none;stroke-width:2;stroke-linecap:butt;stroke-linejoin:miter;stroke:rgb(0%,0%,0%);stroke-opacity:1;stroke-miterlimit:10;" d="M 820 20 L 900 20 M 820 500 L 900 500 "/>
<path style="fill:none;stroke-width:2;stroke-linecap:butt;stroke-linejoin:miter;stroke:rgb(100%,0%,0%);stroke-opacity:1;stroke-miterlimit:10;" d="M 820 260 L 900 260 M 820 233.332031 L 900 233.332031 M 820 473.332031 L 900 473.332031 M 900 260 L 900 500 M 820 233.332031 L 900 46.667969 "/>
<path style="fill:none;stroke-width:2;stroke-linecap:butt;stroke-linejoin:miter;stroke:rgb(0%,0%,100%);stroke-opacity:1;stroke-miterlimit:10;" d="M 820 286.667969 L 900 286.667969 M 820 46.667969 L 900 46.667969 M 900 20 L 900 260 M 820 286.667969 L 900 473.332031 "/>
<path style="fill:none;stroke-width:2;stroke-linecap:butt;stroke-linejoin:miter;stroke:rgb(0%,0%,0%);stroke-opacity:1;stroke-miterlimit:10;" d="M 900 20 L 980 20 M 900 500 L 980 500 "/>
<path style="fill:none;stroke-width:2;stroke-linecap:butt;stroke-linejoin:miter;stroke:rgb(100%,0%,0%);stroke-opacity:1;stroke-miterlimit:10;" d="M 900 260 L 980 260 M 900 233.332031 L 980 233.332031 M 900 473.332031 L 980 473.332031 M 980 260 L 980 500 M 900 233.332031 L 980 46.667969 "/>
<path style="fill:none;stroke-width:2;stroke-linecap:butt;stroke-linejoin:miter;stroke:rgb(0%,0%,100%);stroke-opacity:1;stroke-miterlimit:10;" d="M 900 286.667969 L 980 286.667969 M 900 46.667969 L 980 46.667969 M 980 20 L 980 260 M 900 286.667969 L 980 473.332031 "/>
<path style="fill:none;stroke-width:2;stroke-linecap:butt;stroke-linejoin:miter;stroke:rgb(0%,0%,0%);stroke-opacity:1;stroke-miterlimit:10;" d="M 980 20 L 1060 20 M 980 500 L 1060 500 "/>
<path style="fill:none;stroke-width:2;stroke-linecap:butt;stroke-linejoin:miter;stroke:rgb(100%,0%,0%);stroke-opacity:1;stroke-miterlimit:10;" d="M 980 260 L 1060 260 M 980 233.332031 L 1060 233.332031 M 980 473.332031 L 1060 473.332031 M 1060 260 L 1060 500 M 980 233.332031 L 1060 46.667969 "/>
<path style="fill:none;stroke-width:2;stroke-linecap:butt;stroke-linejoin:miter;stroke:rgb(0%,0%,100%);stroke-opacity:1;stroke-miterlimit:10;" d="M 980 286.667969 L 1060 286.667969 M 980 46.667969 L 1060 46.667969 M 1060 20 L 1060 260 M 980 286.667969 L 1060 473.332031 "/>
<path style="fill:none;stroke-width:2;stroke-linecap:butt;stroke-linejoin:miter;stroke:rgb(0%,0%,0%);stroke-opacity:1;stroke-miterlimit:10;" d="M 1060 20 L 1140 20 M 1060 500 L 1140 500 "/>
<path style="fill:none;stroke-width:2;stroke-linecap:butt;stroke-linejoin:miter;stroke:rgb(100%,0%,0%);stroke-opacity:1;stroke-miterlimit:10;" d="M 1060 260 L 1140 260 M 1060 233.332031 L 1140 233.332031 M 1060 473.332031 L 1140 473.332031 M 1140 260 L 1140 500 M 1060 233.332031 L 1140 46.667969 "/>
<path style="fill:none;stroke-width:2;stroke-linecap:butt;stroke-linejoin:miter;stroke:rgb(0%,0%,100%);stroke-opacity:1;stroke-miterlimit:10;" d="M 1060 286.667969 L 1140 286.667969 M 1060 46.667969 L 1140 46.667969 M 1140 20 L 1140 260 M 1060 286.667969 L 1140 473.332031 "/>
<path style="fill:none;stroke-width:2;stroke-linecap:butt;stroke-linejoin:miter;stroke:rgb(0%,0%,0%);stroke-opacity:1;stroke-miterlimit:10;" d="M 1140 20 L 1220 20 M 1140 500 L 1220 500 "/>
<path style="fill:none;stroke-width:2;stroke-linecap:butt;stroke-linejoin:miter;stroke:rgb(100%,0%,0%);stroke-opacity:1;stroke-miterlimit:10;" d="M 1140 260 L 1220 260 M 1140 233.332031 L 1220 233.332031 M 1140 473.332031 L 1220 473.332031 M 1220 260 L 1220 500 M 1140 233.332031 L 1220 46.667969 "/>
<path style="fill:none;stroke-width:2;stroke-linecap:butt;stroke-linejoin:miter;stroke:rgb(0%,0%,100%);stroke-opacity:1;stroke-miterlimit:10;" d="M 1140 286.667969 L 1220 286.667969 M 1140 46.667969 L 1220 46.667969 M 1220 20 L 1220 260 M 1140 286.667969 L 1220 473.332031 "/>
<path style="fill:none;stroke-width:2;stroke-linecap:butt;stroke-linejoin:miter;stroke:rgb(0%,0%,0%);stroke-opacity:1;stroke-miterlimit:10;" d="M 1220 20 L 1300 20 M 1220 500 L 1300 500 "/>
<path style="fill:none;stroke-width:2;stroke-linecap:butt;stroke-linejoin:miter;stroke:rgb(100%,0%,0%);stroke-opacity:1;stroke-miterlimit:10;" d="M 1220 260 L 1300 260 M 1220 233.332031 L 1300 233.332031 M 1220 473.332031 L 1300 473.332031 M 1300 260 L 1300 500 M 1220 233.332031 L 1300 46.667969 "/>
<path style="fill:none;stroke-width:2;stroke-linecap:butt;stroke-linejoin:miter;stroke:rgb(0%,0%,100%);stroke-opacity:1;stroke-miterlimit:10;" d="M 1220 286.667969 L 1300 286.667969 M 1220 46.667969 L 1300 46.667969 M 1300 20 L 1300 260 M 1220 286.667969 L 1300 473.332031 "/>
<path style="fill:none;stroke-width:2;stroke-linecap:butt;stroke-linejoin:miter;stroke:rgb(0%,0%,0%);stroke-opacity:1;stroke-miterlimit:10;" d="M 1300 20 L 1380 20 M 1300 500 L 1380 500 "/>
<path style="fill:none;stroke-width:2;stroke-linecap:butt;stroke-linejoin:miter;stroke:rgb(100%,0%,0%);stroke-opacity:1;stroke-miterlimit:10;" d="M 1300 260 L 1380 260 M 1300 233.332031 L 1380 233.332031 M 1300 473.332031 L 1380 473.332031 M 1380 260 L 1380 500 M 1300 233.332031 L 1380 46.667969 "/>
<path style="fill:none;stroke-width:2;stroke-linecap:butt;stroke-linejoin:miter;stroke:rgb(0%,0%,100%);stroke-opacity:1;stroke-miterlimit:10;" d="M 1300 286.667969 L 1380 286.667969 M 1300 46.667969 L 1380 46.667969 M 1380 20 L 1380 260 M 1300 286.667969 L 1380 473.332031 "/>
<path style="fill:none;stroke-width:2;stroke-linecap:butt;stroke-linejoin:miter;stroke:rgb(0%,0%,0%);stroke-opacity:1;stroke-miterlimit:10;" d="M 1380 20 L 1460 20 M 1380 500 L 1460 500 "/>
<path style="fill:none;stroke-width:2;stroke-linecap:butt;stroke-linejoin:miter;stroke:rgb(100%,0%,0%);stroke-opacity:1;stroke-miterlimit:10;" d="M 1380 260 L 1460 260 M 1380 233.332031 L 1460 233.332031 M 1380 473.332031 L 1460 473.332031 M 1460 260 L 1460 500 M 1380 233.332031 L 1460 46.667969 "/>
<path style="fill:none;stroke-width:2;stroke-linecap:butt;stroke-linejoin:miter;stroke:rgb(0%,0%,100%);stroke-opacity:1;stroke-miterlimit:10;" d="M 1380 286.667969 L 1460 286.667969 M 1380 46.667969 L 1460 46.667969 M 1460 20 L 1460 260 M 1380 286.667969 L 1460 473.332031 "/>
<path style="fill:none;stroke-width:2;stroke-linecap:butt;stroke-linejoin:miter;stroke:rgb(0%,0%,0%);stroke-opacity:1;stroke-miterlimit:10;" d="M 1460 20 L 1540 20 M 1460 500 L 1540 500 "/>
<path style="fill:none;stroke-width:2;stroke-linecap:butt;stroke-linejoin:miter;stroke:rgb(100%,0%,0%);stroke-opacity:1;stroke-miterlimit:10;" d="M 1460 260 L 1540 260 M 1460 233.332031 L 1540 233.332031 M 1460 473.332031 L 1540 473.332031 M 1540 260 L 1540 500 M 1460 233.332031 L 1540 46.667969 "/>
<path style="fill:none;stroke-width:2;stroke-linecap:butt;stroke-linejoin:miter;stroke:rgb(0%,0%,100%);stroke-opacity:1;stroke-miterlimit:10;" d="M 1460 286.667969 L 1540 286.667969 M 1460 46.667969 L 1540 46.667969 M 1540 20 L 1540 260 M 1460 286.667969 L 1540 473.332031 "/>
<path style="fill:none;stroke-width:2;stroke-linecap:butt;stroke-linejoin:miter;stroke:rgb(0%,0%,0%);stroke-opacity:1;stroke-miterlimit:10;" d="M 1540 20 L 1620 20 M 1540 500 L 1620 500 "/>
<path style="fill:none;stroke-width:2;stroke-linecap:butt;stroke-linejoin:miter;stroke:rgb(100%,0%,0%);stroke-opacity:1;stroke-miterlimit:10;" d="M 1540 260 L 1620 260 M 1540 233.332031 L 1620 233.332031 M 1540 473.332031 L 1620 473.332031 M 1620 260 L 1620 500 M 1540 233.332031 L 1620 46.667969 "/>
<path style="fill:none;stroke-width:2;stroke-linecap:butt;stroke-linejoin:miter;stroke:rgb(0%,0%,100%);stroke-opacity:1;stroke-miterlimit:10;" d="M 1540 286.667969 L 1620 286.667969 M 1540 46.667969 L 1620 46.667969 M 1620 20 L 1620 260 M 1540 286.667969 L 1620 473.332031 "/>
<path style="fill:none;stroke-width:2;stroke-linecap:butt;stroke-linejoin:miter;stroke:rgb(0%,0%,0%);stroke-opacity:1;stroke-miterlimit:10;" d="M 1620 20 L 1700 20 M 1620 500 L 1700 500 M 1700 20 L 1700 500 "/>
<path style="fill:none;stroke-width:2;stroke-linecap:butt;stroke-linejoin:miter;stroke:rgb(100%,0%,0%);stroke-opacity:1;stroke-miterlimit:10;" d="M 1620 260 L 1700 260 M 1620 233.332031 L 1700 233.332031 M 1620 473.332031 L 1700 473.332031 M 1620 233.332031 L 1700 46.667969 "/>
<path style="fill:none;stroke-width:2;stroke-linecap:butt;stroke-linejoin:miter;stroke:rgb(0%,0%,100%);stroke-opacity:1;stroke-miterlimit:10;" d="M 1620 286.667969 L 1700 286.667969 M 1620 46.667969 L 1700 46.667969 M 1620 286.667969 L 1700 473.332031 "/>
</g>
</svg>
