<?xml version="1.0" encoding="UTF-8"?>
<svg xmlns="http://www.w3.org/2000/svg" xmlns:xlink="http://www.w3.org/1999/xlink" width="300pt" height="300pt" viewBox="0 0 300 300" version="1.1">
<g id="surface1">
<path style=" stroke:none;fill-rule:nonzero;fill:rgb(0%,0%,0%);fill-opacity:1;" d="M 45 150 C 45 94.773438 56.191406 50 70 50 C 83.808594 50 95 94.773438 95 150 C 95 205.226562 83.808594 250 70 250 C 56.191406 250 45 205.226562 45 150 "/>
<path style="fill:none;stroke-width:7;stroke-linecap:butt;stroke-linejoin:miter;stroke:rgb(7.03125%,81.25%,99.609375%);stroke-opacity:1;stroke-miterlimit:10;" d="M 45 155 C 45 99.773438 56.191406 55 70 55 C 83.808594 55 95 99.773438 95 155 C 95 210.226562 83.808594 255 70 255 C 56.191406 255 45 210.226562 45 155 "/>
<path style="fill:none;stroke-width:6;stroke-linecap:butt;stroke-linejoin:miter;stroke:rgb(0.390625%,30.46875%,75%);stroke-opacity:1;stroke-miterlimit:10;" d="M 45 150 C 45 95.875 56.191406 52 70 52 C 83.808594 52 95 95.875 95 150 C 95 204.125 83.808594 248 70 248 C 56.191406 248 45 204.125 45 150 "/>
<path style="fill-rule:nonzero;fill:rgb(0%,0%,0%);fill-opacity:1;stroke-width:1;stroke-linecap:butt;stroke-linejoin:miter;stroke:rgb(100%,100%,100%);stroke-opacity:1;stroke-miterlimit:10;" d="M 32.125 139.773438 L 31.421875 140.53125 L 30.476562 140.949219 L 29.433594 140.988281 L 28.464844 140.625 L 27.695312 139.925781 L 27.261719 138.980469 L 27.199219 137.9375 L 27.5625 136.976562 L 28.257812 136.210938 L 29.21875 135.785156 L 30.265625 135.726562 L 31.242188 136.09375 L 32.003906 136.792969 L 32.433594 137.753906 L 32.484375 138.796875 Z M 41.023438 146.488281 L 39.800781 148.179688 L 38.382812 149.601562 L 36.859375 150.683594 L 35.339844 151.390625 L 33.722656 151.753906 L 32.15625 151.785156 L 30.628906 151.460938 L 29.167969 150.769531 L 27.957031 149.820312 L 27.300781 148.8125 L 27.128906 147.820312 L 27.402344 146.960938 L 27.914062 146.347656 L 28.574219 145.949219 L 29.308594 145.839844 L 30.070312 146.121094 L 30.855469 146.898438 L 31.207031 147.894531 L 31.292969 148.96875 L 31.292969 150.144531 L 31.9375 150.40625 L 32.609375 150.425781 L 33.308594 150.195312 L 34.039062 149.722656 L 35.660156 147.972656 L 37.589844 145.140625 L 45.160156 132.785156 L 45.414062 132.21875 L 45.53125 131.601562 L 45.34375 130.398438 L 44.292969 129.25 L 42.910156 128.082031 L 43.542969 127.050781 L 50.363281 130.726562 L 50.453125 131.101562 Z M 54.828125 124.527344 L 54.125 125.316406 L 53.1875 125.800781 L 52.160156 125.902344 L 51.210938 125.566406 L 50.519531 124.90625 L 50.152344 123.988281 L 50.121094 122.976562 L 50.472656 122.0625 L 51.152344 121.300781 L 52.074219 120.847656 L 53.066406 120.75 L 53.96875 121.070312 L 54.730469 121.757812 L 55.132812 122.664062 L 55.160156 123.632812 Z M 52.085938 154.640625 L 44.074219 149.730469 L 44.746094 148.632812 L 45.609375 149.058594 L 46.402344 149.371094 L 46.929688 149.414062 L 47.421875 149.277344 L 47.855469 148.949219 L 48.253906 148.445312 L 59.90625 129.425781 L 60.195312 128.804688 L 60.339844 128.144531 L 60.324219 127.492188 L 60.167969 126.90625 L 59.292969 125.867188 L 58.132812 124.882812 L 58.789062 123.816406 L 65.199219 127.21875 L 65.28125 127.613281 L 51.472656 150.144531 L 51.199219 150.703125 L 51.101562 151.234375 L 51.179688 151.734375 L 51.449219 152.238281 L 52.019531 152.929688 L 52.757812 153.542969 Z M 52.949219 155.171875 Z "/>
<path style=" stroke:none;fill-rule:nonzero;fill:rgb(0%,0%,0%);fill-opacity:1;" d="M 225 150 C 225 94.773438 236.191406 50 250 50 C 263.808594 50 275 94.773438 275 150 C 275 205.226562 263.808594 250 250 250 C 236.191406 250 225 205.226562 225 150 "/>
<path style="fill:none;stroke-width:7;stroke-linecap:butt;stroke-linejoin:miter;stroke:rgb(99.21875%,94.921875%,0.390625%);stroke-opacity:1;stroke-miterlimit:10;" d="M 225 155 C 225 99.773438 236.191406 55 250 55 C 263.808594 55 275 99.773438 275 155 C 275 210.226562 263.808594 255 250 255 C 236.191406 255 225 210.226562 225 155 "/>
<path style="fill:none;stroke-width:6;stroke-linecap:butt;stroke-linejoin:miter;stroke:rgb(75.78125%,38.28125%,0%);stroke-opacity:1;stroke-miterlimit:10;" d="M 225 150 C 225 95.875 236.191406 52 250 52 C 263.808594 52 275 95.875 275 150 C 275 204.125 263.808594 248 250 248 C 236.191406 248 225 204.125 225 150 "/>
<path style="fill-rule:nonzero;fill:rgb(0%,0%,0%);fill-opacity:1;stroke-width:1;stroke-linecap:butt;stroke-linejoin:miter;stroke:rgb(100%,100%,100%);stroke-opacity:1;stroke-miterlimit:10;" d="M 87.160156 27.316406 L 86.023438 26.894531 L 84.660156 26.722656 L 83.132812 27 L 81.625 27.988281 L 72.957031 35.65625 L 62.363281 44.976562 L 60.753906 43.988281 L 66.195312 21.058594 L 47.972656 36.15625 L 46.433594 35.214844 L 50.632812 20.3125 L 53.554688 9.972656 L 53.683594 8.726562 L 53.324219 7.445312 L 52.574219 6.375 L 51.628906 5.542969 L 52.390625 4.300781 L 62.511719 10.503906 L 61.753906 11.746094 L 59.328125 10.621094 L 58.464844 10.445312 L 57.996094 10.695312 L 57.765625 11.191406 L 57.566406 11.707031 L 55.878906 17.660156 L 52.414062 30.125 L 69.886719 15.503906 L 71.601562 16.554688 L 66.3125 39.195312 L 73.128906 32.945312 L 78.035156 28.3125 L 79.925781 26.40625 L 80.65625 25.449219 L 80.785156 24.773438 L 80.453125 23.953125 L 79.59375 22.960938 L 78.152344 21.796875 L 78.914062 20.554688 L 87.921875 26.074219 Z M 95.644531 52.839844 L 94.390625 54.550781 L 92.875 56.0625 L 91.179688 57.257812 L 89.40625 58.035156 L 87.355469 58.453125 L 85.332031 58.402344 L 83.328125 57.878906 L 81.347656 56.898438 L 79.835938 55.757812 L 78.597656 54.359375 L 77.660156 52.734375 L 77.066406 50.933594 L 76.839844 49.003906 L 77.007812 46.964844 L 77.597656 44.863281 L 78.65625 42.765625 L 79.980469 40.921875 L 81.492188 39.449219 L 83.179688 38.339844 L 85.058594 37.597656 L 87.011719 37.242188 L 88.953125 37.328125 L 90.878906 37.847656 L 92.796875 38.804688 L 94.433594 40.011719 L 95.726562 41.433594 L 96.671875 43.0625 L 97.273438 44.902344 L 97.488281 46.847656 L 97.289062 48.824219 L 96.675781 50.816406 Z M 92.003906 50.65625 L 93.4375 47.726562 L 93.933594 46.175781 L 94.167969 44.769531 L 94.117188 43.390625 L 93.765625 42.128906 L 93.050781 41.015625 L 91.945312 40.113281 L 90.59375 39.511719 L 89.242188 39.367188 L 87.894531 39.625 L 86.578125 40.238281 L 85.402344 41.082031 L 84.300781 42.1875 L 82.457031 44.6875 L 81.53125 46.339844 L 80.824219 47.957031 L 80.347656 49.515625 L 80.132812 51.03125 L 80.1875 52.4375 L 80.550781 53.703125 L 81.261719 54.796875 L 82.390625 55.710938 L 83.503906 56.207031 L 84.671875 56.378906 L 85.882812 56.210938 L 87.148438 55.714844 L 88.410156 54.894531 L 89.644531 53.78125 L 90.839844 52.367188 Z M 115.160156 56.234375 L 114.535156 57.007812 L 113.753906 57.550781 L 112.875 57.726562 L 111.984375 57.414062 L 111.195312 56.757812 L 110.800781 55.992188 L 110.738281 55.21875 L 110.96875 54.558594 L 111.460938 53.894531 L 111.960938 53.335938 L 110.964844 52.953125 L 109.628906 52.820312 L 108.113281 53 L 106.601562 53.5625 L 100.449219 63.601562 L 100.167969 64.191406 L 100.074219 64.742188 L 100.171875 65.261719 L 100.464844 65.773438 L 101.433594 66.726562 L 102.554688 67.582031 L 101.847656 68.738281 L 92.753906 63.167969 L 93.460938 62.011719 L 94.335938 62.449219 L 95.164062 62.765625 L 95.71875 62.808594 L 96.226562 62.660156 L 96.679688 62.3125 L 97.089844 61.78125 L 103.617188 51.132812 L 103.882812 50.554688 L 104.015625 49.910156 L 104 49.25 L 103.824219 48.636719 L 103.222656 47.851562 L 102.324219 47.117188 L 103.019531 45.980469 L 108.992188 49.113281 L 109.085938 49.507812 L 107.597656 51.9375 L 107.683594 51.992188 L 109.589844 51.441406 L 111.414062 51.320312 L 113.023438 51.542969 L 114.296875 52.074219 L 115.179688 52.859375 L 115.648438 53.890625 L 115.648438 55.042969 Z M 136.960938 90.257812 L 128.550781 85.101562 L 129.257812 83.949219 L 130.113281 84.375 L 130.925781 84.679688 L 131.480469 84.722656 L 131.988281 84.574219 L 132.441406 84.226562 L 132.851562 83.695312 L 138.304688 74.796875 L 139.082031 73.054688 L 139.21875 72.246094 L 139.195312 71.480469 L 139.011719 70.773438 L 138.710938 70.164062 L 138.28125 69.644531 L 137.726562 69.222656 L 136.851562 68.777344 L 135.957031 68.5 L 134.125 68.386719 L 132.769531 68.699219 L 131.796875 69.125 L 125.699219 79.074219 L 125.292969 80.210938 L 125.363281 80.726562 L 125.640625 81.25 L 126.222656 81.933594 L 127 82.566406 L 126.292969 83.71875 L 118.058594 78.671875 L 118.765625 77.519531 L 119.585938 77.925781 L 120.363281 78.210938 L 120.917969 78.25 L 121.425781 78.101562 L 121.878906 77.753906 L 122.289062 77.226562 L 127.742188 68.324219 L 128.519531 66.582031 L 128.65625 65.773438 L 128.632812 65.007812 L 128.449219 64.300781 L 128.148438 63.691406 L 127.71875 63.171875 L 127.164062 62.75 L 126.289062 62.304688 L 125.390625 62.035156 L 123.554688 61.933594 L 122.167969 62.273438 L 121.199219 62.679688 L 115.144531 72.558594 L 114.867188 73.140625 L 114.777344 73.703125 L 114.863281 74.242188 L 115.136719 74.765625 L 115.726562 75.488281 L 116.511719 76.136719 L 115.800781 77.289062 L 107.425781 72.160156 L 108.132812 71.003906 L 109.007812 71.441406 L 109.835938 71.757812 L 110.390625 71.800781 L 110.898438 71.652344 L 111.351562 71.304688 L 111.761719 70.773438 L 118.332031 60.054688 L 118.589844 59.480469 L 118.695312 58.894531 L 118.453125 57.699219 L 117.839844 56.855469 L 116.925781 56.066406 L 117.621094 54.929688 L 123.628906 58.082031 L 123.722656 58.476562 L 122.210938 60.941406 L 122.335938 61.019531 L 124.035156 60.640625 L 125.792969 60.394531 L 127.753906 60.632812 L 128.835938 61.007812 L 129.910156 61.570312 L 131.328125 62.75 L 132.242188 64.238281 L 132.667969 65.867188 L 132.640625 67.476562 L 134.410156 67.082031 L 136.28125 66.871094 L 137.253906 66.898438 L 138.296875 67.097656 L 139.375 67.464844 L 140.472656 68.042969 L 141.449219 68.761719 L 142.207031 69.597656 L 142.742188 70.539062 L 143.054688 71.597656 L 143.113281 72.746094 L 142.894531 74 L 142.398438 75.34375 L 141.628906 76.785156 L 136.261719 85.546875 L 135.855469 86.679688 L 135.921875 87.195312 L 136.203125 87.722656 L 136.855469 88.449219 L 137.667969 89.101562 Z M 157.695312 102.960938 L 149.234375 97.777344 L 149.941406 96.621094 L 150.875 97.097656 L 151.765625 97.453125 L 152.320312 97.492188 L 152.828125 97.34375 L 153.28125 96.996094 L 153.691406 96.46875 L 159.125 87.601562 L 159.902344 85.839844 L 160.03125 85.015625 L 159.996094 84.238281 L 159.492188 82.898438 L 159.054688 82.371094 L 158.5 81.949219 L 157.574219 81.480469 L 156.632812 81.207031 L 154.808594 81.0625 L 153.367188 81.378906 L 152.425781 81.8125 L 146.351562 91.726562 L 146.074219 92.304688 L 145.984375 92.851562 L 146.070312 93.371094 L 146.347656 93.890625 L 146.984375 94.640625 L 147.808594 95.316406 L 147.101562 96.46875 L 138.636719 91.28125 L 139.34375 90.128906 L 140.234375 90.5625 L 141.046875 90.882812 L 141.605469 90.925781 L 142.117188 90.78125 L 142.574219 90.4375 L 142.992188 89.910156 L 155.292969 69.835938 L 155.585938 69.199219 L 155.75 68.480469 L 155.753906 67.765625 L 155.585938 67.15625 L 155.269531 66.691406 L 154.675781 66.152344 L 153.472656 65.230469 L 154.15625 64.113281 L 160.785156 67.621094 L 160.871094 68.035156 L 153.496094 80.066406 L 153.566406 80.109375 L 155.242188 79.726562 L 157.058594 79.554688 L 159.050781 79.8125 L 160.128906 80.183594 L 161.242188 80.769531 L 162.269531 81.527344 L 163.058594 82.386719 L 163.597656 83.34375 L 163.898438 84.40625 L 163.941406 85.542969 L 163.734375 86.757812 L 163.273438 88.027344 L 162.5625 89.371094 L 157.066406 98.34375 L 156.777344 98.925781 L 156.679688 99.464844 L 156.761719 99.976562 L 157.046875 100.496094 L 157.625 101.175781 L 158.40625 101.808594 Z M 182.007812 105.761719 L 180.753906 107.472656 L 179.238281 108.984375 L 177.542969 110.179688 L 175.769531 110.957031 L 173.71875 111.375 L 171.695312 111.324219 L 169.691406 110.800781 L 167.710938 109.820312 L 166.199219 108.679688 L 164.960938 107.28125 L 164.023438 105.65625 L 163.429688 103.855469 L 163.203125 101.925781 L 163.371094 99.886719 L 163.960938 97.785156 L 165.019531 95.6875 L 166.34375 93.84375 L 167.855469 92.371094 L 169.542969 91.261719 L 171.421875 90.519531 L 173.375 90.164062 L 175.316406 90.25 L 177.242188 90.769531 L 179.160156 91.726562 L 180.796875 92.933594 L 182.089844 94.355469 L 183.035156 95.984375 L 183.636719 97.824219 L 183.851562 99.769531 L 183.652344 101.746094 L 183.039062 103.738281 Z M 178.367188 103.578125 L 179.800781 100.648438 L 180.296875 99.097656 L 180.53125 97.691406 L 180.480469 96.3125 L 180.128906 95.050781 L 179.414062 93.9375 L 178.308594 93.035156 L 176.957031 92.433594 L 175.605469 92.289062 L 174.257812 92.546875 L 172.941406 93.160156 L 171.765625 94.003906 L 170.664062 95.109375 L 168.820312 97.609375 L 167.894531 99.261719 L 167.1875 100.878906 L 166.710938 102.4375 L 166.496094 103.953125 L 166.550781 105.359375 L 166.914062 106.625 L 167.625 107.71875 L 168.753906 108.632812 L 169.867188 109.128906 L 171.035156 109.300781 L 172.246094 109.132812 L 173.511719 108.636719 L 174.773438 107.816406 L 176.007812 106.703125 L 177.203125 105.289062 Z M 187.195312 121.039062 L 178.785156 115.882812 L 179.492188 114.730469 L 180.398438 115.175781 L 181.230469 115.507812 L 181.789062 115.546875 L 182.300781 115.40625 L 182.757812 115.0625 L 183.175781 114.53125 L 195.410156 94.5625 L 195.714844 93.910156 L 195.863281 93.21875 L 195.847656 92.527344 L 195.6875 91.917969 L 194.765625 90.824219 L 193.550781 89.792969 L 194.234375 88.671875 L 200.96875 92.246094 L 201.054688 92.65625 L 186.554688 116.316406 L 186.265625 116.90625 L 186.167969 117.460938 L 186.246094 117.988281 L 186.53125 118.515625 L 187.132812 119.242188 L 187.902344 119.882812 Z M 207.167969 127.699219 L 205.972656 128.316406 L 204.761719 128.773438 L 203.515625 129.066406 L 202.25 129.207031 L 200.972656 129.160156 L 199.730469 128.925781 L 198.511719 128.492188 L 197.320312 127.871094 L 195.480469 126.488281 L 194.125 124.902344 L 193.226562 123.15625 L 192.769531 121.328125 L 192.714844 119.417969 L 193.054688 117.464844 L 193.738281 115.503906 L 194.734375 113.609375 L 195.882812 112.023438 L 197.285156 110.640625 L 198.882812 109.503906 L 200.636719 108.6875 L 202.4375 108.246094 L 204.335938 108.203125 L 206.25 108.589844 L 208.117188 109.472656 L 209.773438 110.691406 L 210.988281 112.046875 L 211.773438 113.496094 L 212.175781 115.011719 L 212.21875 116.507812 L 211.957031 118.054688 L 211.398438 119.617188 L 210.585938 121.183594 L 209.878906 122.335938 L 198.457031 115.339844 L 197.542969 117.003906 L 196.898438 118.613281 L 196.515625 120.164062 L 196.429688 121.671875 L 196.65625 123.058594 L 197.234375 124.363281 L 198.167969 125.539062 L 199.496094 126.558594 L 201.054688 127.261719 L 202.625 127.476562 L 204.355469 127.136719 L 206.40625 126.195312 Z M 207.332031 118.757812 L 208.453125 116.554688 L 208.863281 115.394531 L 209.066406 114.359375 L 209.03125 113.335938 L 208.765625 112.371094 L 208.195312 111.496094 L 207.277344 110.761719 L 206.335938 110.316406 L 205.359375 110.109375 L 204.339844 110.144531 L 203.289062 110.421875 L 202.234375 110.925781 L 201.226562 111.675781 L 200.265625 112.652344 L 199.359375 113.871094 Z M 213.902344 134.644531 L 213.167969 135.4375 L 212.171875 135.878906 L 211.078125 135.917969 L 210.0625 135.535156 L 209.253906 134.800781 L 208.796875 133.8125 L 208.726562 132.722656 L 209.113281 131.707031 L 209.84375 130.898438 L 210.855469 130.453125 L 211.953125 130.394531 L 212.976562 130.78125 L 213.773438 131.511719 L 214.230469 132.523438 L 214.285156 133.621094 Z M 215.066406 138.121094 Z "/>
</g>
</svg>
