<?xml version="1.0" encoding="UTF-8"?>
<svg xmlns="http://www.w3.org/2000/svg" xmlns:xlink="http://www.w3.org/1999/xlink" width="300pt" height="300pt" viewBox="0 0 300 300" version="1.1">
<g id="surface1">
<path style=" stroke:none;fill-rule:nonzero;fill:rgb(0%,0%,0%);fill-opacity:1;" d="M 45 150 C 45 94.773438 56.191406 50 70 50 C 83.808594 50 95 94.773438 95 150 C 95 205.226562 83.808594 250 70 250 C 56.191406 250 45 205.226562 45 150 "/>
<path style="fill:none;stroke-width:7;stroke-linecap:butt;stroke-linejoin:miter;stroke:rgb(7.03125%,81.25%,99.609375%);stroke-opacity:1;stroke-miterlimit:10;" d="M 45 155 C 45 99.773438 56.191406 55 70 55 C 83.808594 55 95 99.773438 95 155 C 95 210.226562 83.808594 255 70 255 C 56.191406 255 45 210.226562 45 155 "/>
<path style="fill:none;stroke-width:6;stroke-linecap:butt;stroke-linejoin:miter;stroke:rgb(0.390625%,30.46875%,75%);stroke-opacity:1;stroke-miterlimit:10;" d="M 45 150 C 45 95.875 56.191406 52 70 52 C 83.808594 52 95 95.875 95 150 C 95 204.125 83.808594 248 70 248 C 56.191406 248 45 204.125 45 150 "/>
<path style="fill-rule:nonzero;fill:rgb(0%,0%,0%);fill-opacity:1;stroke-width:1;stroke-linecap:butt;stroke-linejoin:miter;stroke:rgb(100%,100%,100%);stroke-opacity:1;stroke-miterlimit:10;" d="M 24.472656 197.363281 L 31.347656 197.363281 L 31.347656 205.253906 L 24.472656 205.253906 Z M 52.679688 205.644531 L 52.679688 186.171875 L 46.488281 186.171875 L 46.488281 183.378906 L 56.273438 183.378906 L 56.273438 205.644531 L 56.160156 207.433594 L 55.832031 209.011719 L 55.285156 210.367188 L 54.523438 211.511719 L 53.554688 212.414062 L 52.40625 213.058594 L 51.070312 213.445312 L 49.554688 213.574219 L 44.59375 213.574219 L 44.59375 210.527344 L 49.164062 210.527344 L 49.984375 210.449219 L 50.699219 210.222656 L 51.304688 209.839844 L 51.800781 209.308594 L 52.183594 208.617188 L 52.457031 207.777344 Z M 52.679688 174.863281 L 56.273438 174.863281 L 56.273438 179.414062 L 52.679688 179.414062 Z M 79.082031 197.34375 L 79.300781 199.464844 L 79.574219 200.300781 L 79.96875 200.996094 L 80.464844 201.53125 L 81.070312 201.914062 L 81.777344 202.144531 L 82.597656 202.226562 L 86.796875 202.226562 L 86.796875 205.253906 L 82.246094 205.253906 L 80.722656 205.125 L 79.386719 204.738281 L 78.226562 204.09375 L 77.257812 203.191406 L 76.480469 202.046875 L 75.925781 200.695312 L 75.59375 199.125 L 75.488281 197.34375 L 75.488281 177.558594 L 69.726562 177.558594 L 69.726562 174.746094 L 79.082031 174.746094 Z M 89.125 205.253906 Z "/>
<path style=" stroke:none;fill-rule:nonzero;fill:rgb(0%,0%,0%);fill-opacity:1;" d="M 225 150 C 225 94.773438 236.191406 50 250 50 C 263.808594 50 275 94.773438 275 150 C 275 205.226562 263.808594 250 250 250 C 236.191406 250 225 205.226562 225 150 "/>
<path style="fill:none;stroke-width:7;stroke-linecap:butt;stroke-linejoin:miter;stroke:rgb(99.21875%,94.921875%,0.390625%);stroke-opacity:1;stroke-miterlimit:10;" d="M 225 155 C 225 99.773438 236.191406 55 250 55 C 263.808594 55 275 99.773438 275 155 C 275 210.226562 263.808594 255 250 255 C 236.191406 255 225 210.226562 225 155 "/>
<path style="fill:none;stroke-width:6;stroke-linecap:butt;stroke-linejoin:miter;stroke:rgb(75.78125%,38.28125%,0%);stroke-opacity:1;stroke-miterlimit:10;" d="M 225 150 C 225 95.875 236.191406 52 250 52 C 263.808594 52 275 95.875 275 150 C 275 204.125 263.808594 248 250 248 C 236.191406 248 225 204.125 225 150 "/>
<path style="fill-rule:nonzero;fill:rgb(0%,0%,0%);fill-opacity:1;stroke-width:1;stroke-linecap:butt;stroke-linejoin:miter;stroke:rgb(100%,100%,100%);stroke-opacity:1;stroke-miterlimit:10;" d="M -18.789062 75.398438 L -14.75 75.398438 L -11.816406 100.253906 L -8.328125 83.804688 L -4.003906 83.804688 L -0.476562 100.292969 L 2.457031 75.398438 L 6.496094 75.398438 L 1.921875 106.015625 L -1.992188 106.015625 L -6.15625 87.824219 L -10.296875 106.015625 L -14.214844 106.015625 Z M 19.132812 85.691406 L 17.78125 85.824219 L 16.605469 86.246094 L 15.605469 86.945312 L 14.785156 87.929688 L 14.132812 89.175781 L 13.675781 90.695312 L 13.394531 92.484375 L 13.308594 94.550781 L 13.394531 96.597656 L 13.675781 98.386719 L 14.132812 99.902344 L 14.785156 101.164062 L 15.605469 102.144531 L 16.605469 102.847656 L 17.78125 103.269531 L 19.132812 103.410156 L 20.488281 103.269531 L 21.667969 102.847656 L 22.671875 102.144531 L 23.5 101.164062 L 24.144531 99.902344 L 24.605469 98.386719 L 24.882812 96.597656 L 24.976562 94.550781 L 24.882812 92.484375 L 24.605469 90.695312 L 24.144531 89.175781 L 23.5 87.929688 L 22.671875 86.945312 L 21.667969 86.246094 L 20.488281 85.824219 Z M 19.132812 82.492188 L 21.378906 82.683594 L 23.347656 83.265625 L 25.035156 84.230469 L 26.445312 85.589844 L 27.550781 87.304688 L 28.34375 89.375 L 28.816406 91.785156 L 28.976562 94.550781 L 28.816406 97.316406 L 28.34375 99.734375 L 27.550781 101.800781 L 26.453125 103.523438 L 25.046875 104.867188 L 23.359375 105.835938 L 21.382812 106.414062 L 19.132812 106.609375 L 16.882812 106.414062 L 14.914062 105.835938 L 13.226562 104.867188 L 11.832031 103.523438 L 10.722656 101.800781 L 9.933594 99.734375 L 9.460938 97.316406 L 9.308594 94.550781 L 9.460938 91.785156 L 9.933594 89.375 L 10.722656 87.304688 L 11.832031 85.589844 L 13.226562 84.230469 L 14.914062 83.265625 L 16.882812 82.683594 Z M 55.472656 87.785156 L 54.25 86.964844 L 53.011719 86.410156 L 51.695312 86.085938 L 50.261719 85.980469 L 48.597656 86.113281 L 47.148438 86.53125 L 45.902344 87.222656 L 44.871094 88.195312 L 44.050781 89.421875 L 43.464844 90.902344 L 43.113281 92.621094 L 43.003906 94.59375 L 43.003906 106.015625 L 39.207031 106.015625 L 39.207031 83.046875 L 43.003906 83.046875 L 43.003906 87.539062 L 43.535156 86.386719 L 44.195312 85.378906 L 44.984375 84.511719 L 45.90625 83.796875 L 46.925781 83.222656 L 48.042969 82.816406 L 49.25 82.570312 L 50.550781 82.492188 L 51.898438 82.578125 L 53.152344 82.84375 L 54.335938 83.285156 L 55.472656 83.929688 Z M 70.933594 85.382812 L 71.722656 84.097656 L 72.707031 83.199219 L 73.890625 82.667969 L 75.300781 82.492188 L 76.578125 82.621094 L 77.660156 83.023438 L 78.535156 83.695312 L 79.207031 84.636719 L 79.699219 85.941406 L 80.058594 87.722656 L 80.269531 89.976562 L 80.347656 92.707031 L 80.347656 106.015625 L 76.902344 106.015625 L 76.902344 92.871094 L 76.761719 88.925781 L 76.59375 87.644531 L 76.359375 86.832031 L 76.027344 86.3125 L 75.585938 85.945312 L 75.035156 85.722656 L 74.378906 85.652344 L 73.621094 85.726562 L 72.996094 85.964844 L 72.496094 86.355469 L 72.132812 86.914062 L 71.863281 87.753906 L 71.675781 89.03125 L 71.527344 92.871094 L 71.527344 106.015625 L 68.082031 106.015625 L 68.082031 92.871094 L 67.933594 88.890625 L 67.746094 87.609375 L 67.5 86.800781 L 67.148438 86.296875 L 66.679688 85.9375 L 66.09375 85.722656 L 65.398438 85.652344 L 64.699219 85.726562 L 64.125 85.964844 L 63.65625 86.355469 L 63.316406 86.914062 L 63.058594 87.753906 L 62.875 89.03125 L 62.730469 92.871094 L 62.730469 106.015625 L 59.304688 106.015625 L 59.304688 83.046875 L 62.730469 83.046875 L 62.730469 85.015625 L 63.488281 83.929688 L 64.421875 83.140625 L 65.5 82.652344 L 66.730469 82.492188 L 68.152344 82.671875 L 69.324219 83.210938 L 70.242188 84.109375 Z M 103.910156 91.78125 L 103.910156 106.015625 L 100.113281 106.015625 L 100.113281 91.78125 L 100.042969 90.332031 L 99.839844 89.09375 L 99.5 88.054688 L 99.027344 87.230469 L 98.402344 86.585938 L 97.628906 86.136719 L 96.699219 85.859375 L 95.625 85.773438 L 94.375 85.890625 L 93.28125 86.242188 L 92.335938 86.828125 L 91.554688 87.652344 L 90.925781 88.6875 L 90.484375 89.929688 L 90.214844 91.375 L 90.128906 93.035156 L 90.128906 106.015625 L 86.355469 106.015625 L 86.355469 74.105469 L 90.128906 74.105469 L 90.128906 86.492188 L 91.308594 84.757812 L 92.855469 83.507812 L 94.734375 82.742188 L 96.9375 82.492188 L 98.574219 82.632812 L 99.996094 83.066406 L 101.195312 83.789062 L 102.175781 84.800781 L 102.929688 86.097656 L 103.476562 87.695312 L 103.796875 89.585938 Z M 120.277344 85.691406 L 118.925781 85.824219 L 117.75 86.246094 L 116.75 86.945312 L 115.929688 87.929688 L 115.277344 89.175781 L 114.820312 90.695312 L 114.539062 92.484375 L 114.453125 94.550781 L 114.539062 96.597656 L 114.820312 98.386719 L 115.277344 99.902344 L 115.929688 101.164062 L 116.75 102.144531 L 117.75 102.847656 L 118.925781 103.269531 L 120.277344 103.410156 L 121.632812 103.269531 L 122.8125 102.847656 L 123.816406 102.144531 L 124.644531 101.164062 L 125.289062 99.902344 L 125.75 98.386719 L 126.027344 96.597656 L 126.121094 94.550781 L 126.027344 92.484375 L 125.75 90.695312 L 125.289062 89.175781 L 124.644531 87.929688 L 123.816406 86.945312 L 122.8125 86.246094 L 121.632812 85.824219 Z M 120.277344 82.492188 L 122.523438 82.683594 L 124.492188 83.265625 L 126.179688 84.230469 L 127.589844 85.589844 L 128.695312 87.304688 L 129.488281 89.375 L 129.960938 91.785156 L 130.121094 94.550781 L 129.960938 97.316406 L 129.488281 99.734375 L 128.695312 101.800781 L 127.597656 103.523438 L 126.191406 104.867188 L 124.503906 105.835938 L 122.527344 106.414062 L 120.277344 106.609375 L 118.027344 106.414062 L 116.058594 105.835938 L 114.371094 104.867188 L 112.976562 103.523438 L 111.867188 101.800781 L 111.078125 99.734375 L 110.605469 97.316406 L 110.453125 94.550781 L 110.605469 91.785156 L 111.078125 89.375 L 111.867188 87.304688 L 112.976562 85.589844 L 114.371094 84.230469 L 116.058594 83.265625 L 118.027344 82.683594 Z M 147.675781 97.710938 L 147.90625 99.9375 L 148.199219 100.816406 L 148.609375 101.546875 L 149.125 102.109375 L 149.761719 102.511719 L 150.503906 102.753906 L 151.367188 102.835938 L 155.773438 102.835938 L 155.773438 106.015625 L 150.996094 106.015625 L 149.398438 105.875 L 147.992188 105.46875 L 146.777344 104.792969 L 145.757812 103.851562 L 144.9375 102.652344 L 144.363281 101.234375 L 144.011719 99.582031 L 143.902344 97.710938 L 143.902344 76.9375 L 137.851562 76.9375 L 137.851562 73.984375 L 147.675781 73.984375 Z M 181.183594 92.644531 L 181.183594 94.492188 L 164.839844 94.492188 L 164.839844 94.613281 L 164.886719 96.792969 L 165.203125 98.644531 L 165.785156 100.164062 L 166.632812 101.359375 L 167.707031 102.25 L 168.992188 102.894531 L 170.472656 103.28125 L 172.160156 103.410156 L 174.003906 103.261719 L 175.933594 102.835938 L 177.964844 102.113281 L 180.136719 101.09375 L 180.136719 104.847656 L 178.019531 105.613281 L 175.984375 106.167969 L 174.015625 106.496094 L 172.121094 106.609375 L 169.585938 106.402344 L 167.351562 105.804688 L 165.402344 104.796875 L 163.753906 103.402344 L 162.429688 101.644531 L 161.488281 99.582031 L 160.925781 97.214844 L 160.738281 94.550781 L 160.917969 91.9375 L 161.476562 89.605469 L 162.394531 87.546875 L 163.691406 85.773438 L 165.289062 84.335938 L 167.136719 83.3125 L 169.226562 82.695312 L 171.566406 82.492188 L 173.640625 82.671875 L 175.488281 83.234375 L 177.101562 84.160156 L 178.488281 85.46875 L 179.601562 87.027344 L 180.425781 88.746094 L 180.949219 90.613281 Z M 177.410156 91.539062 L 177.207031 90.386719 L 176.851562 89.316406 L 176.339844 88.328125 L 175.675781 87.425781 L 174.847656 86.664062 L 173.863281 86.125 L 172.714844 85.796875 L 171.402344 85.691406 L 170.09375 85.800781 L 168.910156 86.140625 L 167.847656 86.703125 L 166.910156 87.496094 L 166.121094 88.421875 L 165.542969 89.410156 L 165.160156 90.453125 L 164.980469 91.558594 Z M 191.476562 97.730469 L 198.695312 97.730469 L 198.695312 106.015625 L 191.476562 106.015625 Z M 208.789062 106.015625 Z "/>
</g>
</svg>
